<?xml version="1.0" encoding="UTF-8" standalone="no"?>
<svg width="65px" height="120px" viewBox="0 0 65 120" version="1.1" xmlns="http://www.w3.org/2000/svg" xmlns:xlink="http://www.w3.org/1999/xlink">
    <!-- Generator: Sketch 3.8.3 (29802) - http://www.bohemiancoding.com/sketch -->
    <title>phone-scanner</title>
    <desc>Created with Sketch.</desc>
    <defs>
        <rect id="path-1" x="0" y="0.839677887" width="64.3003755" height="118.772437" rx="4.28771687"></rect>
        <mask id="mask-2" maskContentUnits="userSpaceOnUse" maskUnits="objectBoundingBox" x="0" y="0" width="64.3003755" height="118.772437" fill="white">
            <use xlink:href="#path-1"></use>
        </mask>
    </defs>
    <g id="iOS" stroke="none" stroke-width="1" fill="none" fill-rule="evenodd">
        <g id="Home---Empty-Copy-10" transform="translate(-155.000000, -247.000000)">
            <g id="phone-scanner" transform="translate(155.000000, 247.000000)">
                <use id="Rectangle-280" stroke="#E9E9E9" mask="url(#mask-2)" stroke-width="2.24747826" fill="#FFFFFF" xlink:href="#path-1"></use>
                <rect id="Rectangle-281" fill="#E9E9E9" x="5.2" y="10.3630246" width="54.1476846" height="90.6670188"></rect>
                <g id="Group-3" transform="translate(10.993098, 36.930433)">
                    <path d="M0.299822645,0.820814732 C0.406468063,0.350788741 0.825563863,0 1.32730277,0 L8.59356902,0 L8.59356902,2.11262956 L2.36988381,2.11262956 L2.36988381,8.38525913 L0.257254242,8.38525913 L0.257254242,1.11899288 C0.257254242,1.01543163 0.272101654,0.91535971 0.299822645,0.820814732 Z" id="Combined-Shape" fill="#FFFFFF"></path>
                    <path d="M33.5798226,0.820814732 C33.6864681,0.350788741 34.1055639,0 34.6073028,0 L41.873569,0 L41.873569,2.11262956 L35.6498838,2.11262956 L35.6498838,8.38525913 L33.5372542,8.38525913 L33.5372542,1.11899288 C33.5372542,1.01543163 33.5521017,0.91535971 33.5798226,0.820814732 Z" id="Combined-Shape" fill="#FFFFFF" transform="translate(37.713569, 4.225259) rotate(-270.000000) translate(-37.713569, -4.225259) "></path>
                    <path d="M33.5798226,34.6228877 C33.6864681,34.1528618 34.1055639,33.802073 34.6073028,33.802073 L41.873569,33.802073 L41.873569,35.9147026 L35.6498838,35.9147026 L35.6498838,42.1873321 L33.5372542,42.1873321 L33.5372542,34.9210659 C33.5372542,34.8175046 33.5521017,34.7174327 33.5798226,34.6228877 Z" id="Combined-Shape" fill="#FFFFFF" transform="translate(37.713569, 38.027332) rotate(-180.000000) translate(-37.713569, -38.027332) "></path>
                    <path d="M0.299822645,34.6228877 C0.406468063,34.1528618 0.825563863,33.802073 1.32730277,33.802073 L8.59356902,33.802073 L8.59356902,35.9147026 L2.36988381,35.9147026 L2.36988381,42.1873321 L0.257254242,42.1873321 L0.257254242,34.9210659 C0.257254242,34.8175046 0.272101654,34.7174327 0.299822645,34.6228877 Z" id="Combined-Shape" fill="#FFFFFF" transform="translate(4.433569, 38.027332) rotate(-90.000000) translate(-4.433569, -38.027332) "></path>
                    <path d="M23.0149024,8.45051825 L35.217569,8.45051825 L35.217569,20.8446117 L23.0149024,20.8446117 L23.0149024,8.45051825 Z M25.233569,10.7039898 L32.9989024,10.7039898 L32.9989024,18.5911402 L25.233569,18.5911402 L25.233569,10.7039898 Z M27.4522357,12.9574613 L30.7802357,12.9574613 L30.7802357,16.3376686 L27.4522357,16.3376686 L27.4522357,12.9574613 Z M8.59356902,8.45051825 L20.7962357,8.45051825 L20.7962357,20.8446117 L8.59356902,20.8446117 L8.59356902,8.45051825 Z M10.8122357,10.7039898 L18.577569,10.7039898 L18.577569,18.5911402 L10.8122357,18.5911402 L10.8122357,10.7039898 Z M13.0309024,12.9574613 L16.3589024,12.9574613 L16.3589024,16.3376686 L13.0309024,16.3376686 L13.0309024,12.9574613 Z M8.59356902,23.0980832 L20.7962357,23.0980832 L20.7962357,35.4921767 L8.59356902,35.4921767 L8.59356902,23.0980832 Z M10.8122357,25.3515548 L18.577569,25.3515548 L18.577569,33.2387051 L10.8122357,33.2387051 L10.8122357,25.3515548 Z M13.0309024,27.6050263 L16.3589024,27.6050263 L16.3589024,30.9852336 L13.0309024,30.9852336 L13.0309024,27.6050263 Z M23.0149024,23.0980832 L25.233569,23.0980832 L25.233569,30.9852336 L23.0149024,30.9852336 L23.0149024,23.0980832 Z M27.4522357,33.2387051 L35.217569,33.2387051 L35.217569,35.4921767 L27.4522357,35.4921767 L27.4522357,33.2387051 Z M27.4522357,30.9852336 L29.6709024,30.9852336 L29.6709024,33.2387051 L27.4522357,33.2387051 L27.4522357,30.9852336 Z M31.889569,28.7317621 L35.217569,28.7317621 L35.217569,30.9852336 L31.889569,30.9852336 L31.889569,28.7317621 Z M27.4522357,28.7317621 L29.6709024,28.7317621 L29.6709024,30.9852336 L27.4522357,30.9852336 L27.4522357,28.7317621 Z M23.0149024,33.2387051 L25.233569,33.2387051 L25.233569,35.4921767 L23.0149024,35.4921767 L23.0149024,33.2387051 Z M29.6709024,26.4782905 L31.889569,26.4782905 L31.889569,28.7317621 L29.6709024,28.7317621 L29.6709024,26.4782905 Z M27.4522357,24.224819 L29.6709024,24.224819 L29.6709024,26.4782905 L27.4522357,26.4782905 L27.4522357,24.224819 Z M25.233569,26.4782905 L27.4522357,26.4782905 L27.4522357,28.7317621 L25.233569,28.7317621 L25.233569,26.4782905 Z M25.233569,30.9852336 L27.4522357,30.9852336 L27.4522357,33.2387051 L25.233569,33.2387051 L25.233569,30.9852336 Z M31.889569,23.0980832 L35.217569,23.0980832 L35.217569,26.4782905 L31.889569,26.4782905 L31.889569,23.0980832 Z" id="Combined-Shape" fill="#000000"></path>
                </g>
                <ellipse id="Oval-218" stroke="#E9E9E9" stroke-width="1.12373913" cx="32.1671655" cy="109.643389" rx="5.09332318" ry="5.164019"></ellipse>
            </g>
        </g>
    </g>
</svg>