<?xml version="1.0" encoding="UTF-8" standalone="no"?>
<svg width="94px" height="76px" viewBox="0 0 94 76" version="1.1" xmlns="http://www.w3.org/2000/svg" xmlns:xlink="http://www.w3.org/1999/xlink">
    <!-- Generator: Sketch 3.8.3 (29802) - http://www.bohemiancoding.com/sketch -->
    <title>dk_logo</title>
    <desc>Created with Sketch.</desc>
    <defs></defs>
    <g id="Page-1" stroke="none" stroke-width="1" fill="none" fill-rule="evenodd">
        <g id="Artboard-1" transform="translate(-98.000000, -192.000000)" fill="#4A4A4A">
            <g id="dk_logo" transform="translate(98.000000, 193.000000)">
                <path d="M0,7.61784008 C0,-0.114657498 4.97832124,-2.57124367 11.1092247,2.12311654 L45.5483041,28.492712 C51.6837595,33.1905575 51.6792076,40.8110541 45.5483041,45.5057822 L11.1092247,71.8774438 C4.97376932,76.5756574 0,74.1093105 0,66.3833867 L0,7.61784008 Z" id="Rectangle-1"></path>
                <path d="M60,6.97629996 C60,3.12339588 63.125608,0 66.9949268,0 L85.0027384,0 C92.7332125,0 95.3984701,5.12525416 90.9514944,11.4536426 L73,37 L60,37 C60,37.2321129 60,6.97629996 60,6.97629996 Z M60,37 L73,37 L90.9514944,62.5463574 C95.3965613,68.8720295 92.7339753,74 85.0027384,74 L66.9949268,74 C63.1317354,74 60,70.8613618 60,66.9970846 L60,37 Z" id="Combined-Shape"></path>
            </g>
        </g>
    </g>
</svg>