<?xml version="1.0" encoding="UTF-8" standalone="no"?>
<svg width="60px" height="60px" viewBox="0 0 60 60" version="1.1" xmlns="http://www.w3.org/2000/svg" xmlns:xlink="http://www.w3.org/1999/xlink">
    <!-- Generator: Sketch 3.8.3 (29802) - http://www.bohemiancoding.com/sketch -->
    <title>Group</title>
    <desc>Created with Sketch.</desc>
    <defs></defs>
    <g id="iOS" stroke="none" stroke-width="1" fill="none" fill-rule="evenodd">
        <g id="Group" fill="#000000">
            <path d="M28.15625,28 L17.9342514,28 C17.4123248,28 17,28.4177777 17,28.9331325 L17,31.0043675 C17,31.5161185 17.4182786,31.9375 17.9342514,31.9375 L28.15625,31.9375 L28.15625,42.1594986 C28.15625,42.6814252 28.5740277,43.09375 29.0893825,43.09375 L31.1606175,43.09375 C31.6723685,43.09375 32.09375,42.6754714 32.09375,42.1594986 L32.09375,31.9375 L42.3157486,31.9375 C42.8376752,31.9375 43.25,31.5197223 43.25,31.0043675 L43.25,28.9331325 C43.25,28.4213815 42.8317214,28 42.3157486,28 L32.09375,28 L32.09375,17.7780014 C32.09375,17.2560748 31.6759723,16.84375 31.1606175,16.84375 L29.0893825,16.84375 C28.5776315,16.84375 28.15625,17.2620286 28.15625,17.7780014 L28.15625,28 Z M30,60 C46.5685425,60 60,46.5685425 60,30 C60,13.4314575 46.5685425,0 30,0 C13.4314575,0 0,13.4314575 0,30 C0,46.5685425 13.4314575,60 30,60 Z" id="Combined-Shape"></path>
        </g>
    </g>
</svg>