<?xml version="1.0" encoding="UTF-8" standalone="no"?>
<svg width="60px" height="60px" viewBox="0 0 60 60" version="1.1" xmlns="http://www.w3.org/2000/svg" xmlns:xlink="http://www.w3.org/1999/xlink">
    <!-- Generator: Sketch 3.8.3 (29802) - http://www.bohemiancoding.com/sketch -->
    <title>Group 3</title>
    <desc>Created with Sketch.</desc>
    <defs></defs>
    <g id="iOS" stroke="none" stroke-width="1" fill="none" fill-rule="evenodd">
        <g id="Group-3" fill="#FFFFFF">
            <path d="M0.443239107,0.437881147 C0.715004003,0.167291871 1.08828115,0 1.49554521,0 L12,0 L12,3 L3,3 L3,12 L0,12 L1.33226763e-15,1.49554521 C1.55391733e-15,1.0832963 0.165857772,0.710005543 0.435730495,0.439480037 Z" id="Combined-Shape"></path>
            <path d="M48.4432391,0.437881147 C48.715004,0.167291871 49.0882812,0 49.4955452,0 L60,0 L60,3 L51,3 L51,12 L48,12 L48,1.49554521 C48,1.0832963 48.1658578,0.710005543 48.4357305,0.439480037 Z" id="Combined-Shape" transform="translate(54.000000, 6.000000) rotate(-270.000000) translate(-54.000000, -6.000000) "></path>
            <path d="M48.4432391,48.4378811 C48.715004,48.1672919 49.0882812,48 49.4955452,48 L60,48 L60,51 L51,51 L51,60 L48,60 L48,49.4955452 C48,49.0832963 48.1658578,48.7100055 48.4357305,48.43948 Z" id="Combined-Shape" transform="translate(54.000000, 54.000000) rotate(-180.000000) translate(-54.000000, -54.000000) "></path>
            <path d="M0.443239107,48.4378811 C0.715004003,48.1672919 1.08828115,48 1.49554521,48 L12,48 L12,51 L3,51 L3,60 L0,60 L1.33226763e-15,49.4955452 C1.55391733e-15,49.0832963 0.165857772,48.7100055 0.435730495,48.43948 Z" id="Combined-Shape" transform="translate(6.000000, 54.000000) rotate(-90.000000) translate(-6.000000, -54.000000) "></path>
            <path d="M32.8,12 L50.4,12 L50.4,29.6 L32.8,29.6 L32.8,12 Z M36,15.2 L47.2,15.2 L47.2,26.4 L36,26.4 L36,15.2 Z M39.2,18.4 L44,18.4 L44,23.2 L39.2,23.2 L39.2,18.4 Z M12,12 L29.6,12 L29.6,29.6 L12,29.6 L12,12 Z M15.2,15.2 L26.4,15.2 L26.4,26.4 L15.2,26.4 L15.2,15.2 Z M18.4,18.4 L23.2,18.4 L23.2,23.2 L18.4,23.2 L18.4,18.4 Z M12,32.8 L29.6,32.8 L29.6,50.4 L12,50.4 L12,32.8 Z M15.2,36 L26.4,36 L26.4,47.2 L15.2,47.2 L15.2,36 Z M18.4,39.2 L23.2,39.2 L23.2,44 L18.4,44 L18.4,39.2 Z M32.8,32.8 L36,32.8 L36,44 L32.8,44 L32.8,32.8 Z M39.2,47.2 L50.4,47.2 L50.4,50.4 L39.2,50.4 L39.2,47.2 Z M39.2,44 L42.4,44 L42.4,47.2 L39.2,47.2 L39.2,44 Z M45.6,40.8 L50.4,40.8 L50.4,44 L45.6,44 L45.6,40.8 Z M39.2,40.8 L42.4,40.8 L42.4,44 L39.2,44 L39.2,40.8 Z M32.8,47.2 L36,47.2 L36,50.4 L32.8,50.4 L32.8,47.2 Z M42.4,37.6 L45.6,37.6 L45.6,40.8 L42.4,40.8 L42.4,37.6 Z M39.2,34.4 L42.4,34.4 L42.4,37.6 L39.2,37.6 L39.2,34.4 Z M36,37.6 L39.2,37.6 L39.2,40.8 L36,40.8 L36,37.6 Z M36,44 L39.2,44 L39.2,47.2 L36,47.2 L36,44 Z M45.6,32.8 L50.4,32.8 L50.4,37.6 L45.6,37.6 L45.6,32.8 Z" id="Combined-Shape"></path>
        </g>
    </g>
</svg>